<?xml version="1.0" encoding="UTF-8"?>
<svg width="1200pt" height="1200pt" version="1.1" viewBox="0 0 1200 1200" xmlns="http://www.w3.org/2000/svg">
 <path d="m729.6 600c0 71.574-58.027 129.6-129.6 129.6s-129.6-58.027-129.6-129.6 58.027-129.6 129.6-129.6 129.6 58.027 129.6 129.6" fill="#d9480f"/>
 <path d="m1118.4 548.4h-78c-24-204-186-366-388.8-388.8l0.003906-77.996c0-28.801-22.801-51.602-51.602-51.602s-51.602 22.801-51.602 51.602v78c-204 24-366 186-388.8 388.8l-77.996-0.003906c-28.801 0-51.602 22.801-51.602 51.602s22.801 51.602 51.602 51.602h78c24 204 186 366 388.8 388.8v78c0 28.801 22.801 51.602 51.602 51.602 28.801 0 51.602-22.801 51.602-51.602v-78c204-24 366-186 388.8-388.8h78c28.801 0 51.602-22.801 51.602-51.602-0.007812-28.801-22.809-51.602-51.609-51.602zm-466.8 388.8v-70.801c0-28.801-22.801-51.602-51.602-51.602s-51.602 22.801-51.602 51.602v70.801c-147.6-22.801-264-139.2-285.6-285.6h70.801c28.801 0 51.602-22.801 51.602-51.602 0-28.801-22.801-51.602-51.602-51.602h-70.801c22.801-147.6 139.2-264 285.6-285.6v70.801c0 28.801 22.801 51.602 51.602 51.602s51.602-22.801 51.602-51.602v-70.801c147.6 22.801 264 139.2 285.6 285.6h-70.801c-28.801 0-51.602 22.801-51.602 51.602 0 28.801 22.801 51.602 51.602 51.602h70.801c-22.805 146.4-139.2 262.8-285.6 285.6z" fill="#d9480f"/>
</svg>
