<?xml version="1.0" encoding="UTF-8"?>
<svg width="1200pt" height="1200pt" version="1.1" viewBox="0 0 1200 1200" xmlns="http://www.w3.org/2000/svg">
 <path d="m132 576c6.0352 0 11.742 0.19922 17.156 0.57422 0.29297 0.023437 0.57422 0.035156 0.85547 0.035156 6.2461 0 11.52-4.8398 11.953-11.156 0.46875-6.6211-4.5117-12.352-11.121-12.809-5.9531-0.42188-12.223-0.64453-18.844-0.64453-6.6328 0-12 5.3672-12 12s5.3672 12 12 12z" fill="#ffb445"/>
 <path d="m308.12 628.99c-1.3945 6.4805 2.7422 12.855 9.2227 14.238 12.129 2.6016 24.773 4.1016 38.637 4.582 0.14062 0.011719 0.29297 0.011719 0.43359 0.011719 6.4336 0 11.754-5.0977 11.977-11.578 0.23438-6.6211-4.9453-12.188-11.566-12.41-12.445-0.44531-23.719-1.7695-34.465-4.0664-6.4688-1.4648-12.855 2.7422-14.238 9.2227z" fill="#ffb445"/>
 <path d="m675.79 564.82c-12.152-4.6641-24.562-7.9453-37.945-10.055-6.5625-0.96094-12.691 3.4453-13.723 9.9961-1.0195 6.5508 3.4453 12.691 9.9961 13.723 11.707 1.8398 22.523 4.6992 33.094 8.7422 1.4062 0.53906 2.8594 0.79688 4.2891 0.79688 4.8281 0 9.375-2.9297 11.203-7.7109 2.3789-6.1875-0.72656-13.125-6.9141-15.492z" fill="#ffb445"/>
 <path d="m725.54 605.5c-3.2461 5.7773-1.1836 13.09 4.5938 16.336 12.527 7.0312 23.836 12.141 35.578 16.055 1.2539 0.42188 2.543 0.62109 3.7969 0.62109 5.0273 0 9.7031-3.1758 11.379-8.2031 2.0977-6.2812-1.2891-13.078-7.582-15.176-10.266-3.4336-20.25-7.9453-31.43-14.227-5.7656-3.2578-13.09-1.1953-16.336 4.5938z" fill="#ffb445"/>
 <path d="m456.9 601.54c-11.109 6.1641-21.117 10.617-31.477 13.98-6.3047 2.0508-9.7617 8.8242-7.7109 15.117 1.6523 5.0742 6.3516 8.2969 11.414 8.2969 1.2305 0 2.4727-0.1875 3.7031-0.58594 11.883-3.8555 23.227-8.8945 35.719-15.832 5.8008-3.2227 7.8867-10.523 4.6641-16.312-3.2109-5.7891-10.535-7.8984-16.312-4.6641z" fill="#ffb445"/>
 <path d="m946.12 614.99c2.1328 0 4.2891-0.5625 6.2461-1.7578l4.9453-3.0352c8.7539-5.3906 17.016-10.477 26.098-15.152 5.8945-3.0352 8.2031-10.266 5.168-16.16-3.0234-5.9062-10.289-8.25-16.16-5.168-9.8789 5.0859-18.938 10.652-27.68 16.043l-4.8867 2.9883c-5.6602 3.457-7.4414 10.852-3.9844 16.5 2.2617 3.7031 6.2109 5.7422 10.254 5.7422z" fill="#ffb445"/>
 <path d="m527.18 588.53c1.4648 0 2.9531-0.26953 4.3945-0.83203 10.535-4.1367 21.328-7.0898 33-9.0117 6.5391-1.0664 10.969-7.2422 9.8906-13.781-1.0664-6.5391-7.2188-11.051-13.781-9.8906-13.371 2.1914-25.758 5.5781-37.898 10.348-6.1641 2.4258-9.1992 9.3867-6.7734 15.562 1.8516 4.7227 6.3867 7.6055 11.168 7.6055z" fill="#ffb445"/>
 <path d="m210.07 578.3c-3 5.918-0.63281 13.137 5.2734 16.125 9.5859 4.8633 18.258 10.195 27.445 15.855l3.5742 2.1914c1.957 1.1953 4.1133 1.7695 6.2578 1.7695 4.0312 0 7.9805-2.0391 10.242-5.7305 3.4688-5.6484 1.6875-13.031-3.9609-16.5l-3.5391-2.1797c-9.1875-5.6484-18.691-11.508-29.168-16.805-5.9414-3.0469-13.137-0.63281-16.125 5.2734z" fill="#ffb445"/>
 <path d="m890.5 629.36c-1.3359-6.4922-7.7109-10.617-14.18-9.3281-10.734 2.2148-22.02 3.4805-34.5 3.8438-6.6211 0.19922-11.824 5.7305-11.637 12.363 0.19922 6.4922 5.5312 11.637 11.988 11.637h0.375c13.887-0.42188 26.52-1.8398 38.625-4.3359 6.4922-1.3477 10.664-7.6875 9.3281-14.18z" fill="#ffb445"/>
 <path d="m1068 552c-6.6211 0-12.891 0.22266-18.844 0.64453-6.6094 0.45703-11.59 6.1875-11.121 12.809 0.43359 6.3164 5.707 11.156 11.953 11.156 0.28125 0 0.5625-0.011719 0.85547-0.035156 5.4141-0.375 11.121-0.57422 17.156-0.57422 6.6328 0 12-5.3672 12-12s-5.3672-12-12-12z" fill="#ffb445"/>
</svg>

